<svg width="77" height="61" viewBox="0 0 77 61" fill="none" xmlns="http://www.w3.org/2000/svg">
<path d="M33.0312 11.3125H22.0336C21.2007 11.3123 20.3787 11.5024 19.6305 11.8683C18.8822 12.2341 18.2274 12.766 17.716 13.4234L2.52383 32.9605C1.03062 34.8797 0.219533 37.2418 0.21875 39.6734V46.8594C0.21875 48.3098 0.79492 49.7008 1.82051 50.7264C2.8461 51.752 4.2371 52.3281 5.6875 52.3281H33.9062C33.9062 32.3891 36.0883 14.2875 33.0312 11.3125Z" fill="#E6E6E6"/>
<path d="M35.4648 2.74844C34.694 3.51108 34.0821 4.41898 33.6644 5.41962C33.2466 6.42027 33.0315 7.49379 33.0312 8.57812V36.168H76.7812V5.84375C76.7814 4.73871 76.4468 3.65954 75.8215 2.74844H35.4648Z" fill="#F92F60"/>
<path d="M41.2344 0.375C40.0803 0.375026 38.9391 0.618588 37.8856 1.08977C36.832 1.56095 35.8897 2.24914 35.1203 3.10938H76.0484C75.5685 2.27804 74.8781 1.58769 74.0468 1.10771C73.2155 0.627725 72.2724 0.375024 71.3125 0.375H41.2344ZM76.7812 35.9219H33.0312V52.3281H71.3125C72.7629 52.3281 74.1539 51.752 75.1795 50.7264C76.2051 49.7008 76.7812 48.3098 76.7812 46.8594V35.9219Z" fill="#D3D3D3"/>
<path d="M27.5625 50.9609C27.5625 53.4991 26.5542 55.9334 24.7594 57.7282C22.9646 59.523 20.5304 60.5312 17.9922 60.5312C15.454 60.5312 13.0197 59.523 11.225 57.7282C9.43017 55.9334 8.42188 53.4991 8.42188 50.9609C8.42188 48.4227 9.43017 45.9885 11.225 44.1937C13.0197 42.3989 15.454 41.3906 17.9922 41.3906C20.5304 41.3906 22.9646 42.3989 24.7594 44.1937C26.5542 45.9885 27.5625 48.4227 27.5625 50.9609ZM68.5781 50.9609C68.5781 53.4991 67.5698 55.9334 65.775 57.7282C63.9803 59.523 61.546 60.5312 59.0078 60.5312C56.4696 60.5312 54.0354 59.523 52.2406 57.7282C50.4458 55.9334 49.4375 53.4991 49.4375 50.9609C49.4375 48.4227 50.4458 45.9885 52.2406 44.1937C54.0354 42.3989 56.4696 41.3906 59.0078 41.3906C61.546 41.3906 63.9803 42.3989 65.775 44.1937C67.5698 45.9885 68.5781 48.4227 68.5781 50.9609Z" fill="#433B6B"/>
<path d="M22.0938 50.9609C22.0938 52.0487 21.6616 53.092 20.8924 53.8612C20.1232 54.6304 19.08 55.0625 17.9922 55.0625C16.9044 55.0625 15.8611 54.6304 15.0919 53.8612C14.3228 53.092 13.8906 52.0487 13.8906 50.9609C13.8906 49.8731 14.3228 48.8299 15.0919 48.0607C15.8611 47.2915 16.9044 46.8594 17.9922 46.8594C19.08 46.8594 20.1232 47.2915 20.8924 48.0607C21.6616 48.8299 22.0938 49.8731 22.0938 50.9609ZM63.1094 50.9609C63.1094 51.4996 63.0033 52.0329 62.7972 52.5305C62.591 53.0282 62.2889 53.4803 61.9081 53.8612C61.5272 54.242 61.075 54.5442 60.5774 54.7503C60.0798 54.9564 59.5464 55.0625 59.0078 55.0625C58.4692 55.0625 57.9358 54.9564 57.4382 54.7503C56.9406 54.5442 56.4884 54.242 56.1076 53.8612C55.7267 53.4803 55.4246 53.0282 55.2185 52.5305C55.0123 52.0329 54.9062 51.4996 54.9062 50.9609C54.9062 49.8731 55.3384 48.8299 56.1076 48.0607C56.8768 47.2915 57.92 46.8594 59.0078 46.8594C60.0956 46.8594 61.1389 47.2915 61.9081 48.0607C62.6772 48.8299 63.1094 49.8731 63.1094 50.9609ZM54.9062 11.3125C54.181 11.3125 53.4855 11.6006 52.9728 12.1134C52.46 12.6262 52.1719 13.3217 52.1719 14.0469V16.7812H49.4375C48.7123 16.7812 48.0168 17.0693 47.504 17.5821C46.9912 18.0949 46.7031 18.7904 46.7031 19.5156C46.7031 20.2408 46.9912 20.9363 47.504 21.4491C48.0168 21.9619 48.7123 22.25 49.4375 22.25H52.1719V24.9844C52.1719 25.7096 52.46 26.4051 52.9728 26.9179C53.4855 27.4307 54.181 27.7188 54.9062 27.7188C55.6315 27.7188 56.327 27.4307 56.8397 26.9179C57.3525 26.4051 57.6406 25.7096 57.6406 24.9844V22.25H60.375C61.1002 22.25 61.7957 21.9619 62.3085 21.4491C62.8213 20.9363 63.1094 20.2408 63.1094 19.5156C63.1094 18.7904 62.8213 18.0949 62.3085 17.5821C61.7957 17.0693 61.1002 16.7812 60.375 16.7812H57.6406V14.0469C57.6406 13.3217 57.3525 12.6262 56.8397 12.1134C56.327 11.6006 55.6315 11.3125 54.9062 11.3125Z" fill="#F4F4F4"/>
<path d="M2.95312 46.8594H0.21875V39.6734C0.219049 38.3937 0.443945 37.1239 0.883203 35.9219H2.95312C3.67833 35.9219 4.37383 36.21 4.88662 36.7228C5.39942 37.2355 5.6875 37.931 5.6875 38.6562V44.125C5.6875 44.8502 5.39942 45.5457 4.88662 46.0585C4.37383 46.5713 3.67833 46.8594 2.95312 46.8594ZM75.4141 38.6562C74.3263 38.6562 73.283 39.0884 72.5138 39.8576C71.7446 40.6268 71.3125 41.67 71.3125 42.7578C71.3125 43.8456 71.7446 44.8889 72.5138 45.6581C73.283 46.4272 74.3263 46.8594 75.4141 46.8594H76.7812V38.6562H75.4141Z" fill="#FF822D"/>
<path d="M6.59805 27.7188H24.8281C26.2785 27.7188 27.6695 27.1426 28.6951 26.117C29.7207 25.0914 30.2969 23.7004 30.2969 22.25V16.7812C30.2969 16.056 30.0088 15.3605 29.496 14.8478C28.9832 14.335 28.2877 14.0469 27.5625 14.0469H17.232L6.59805 27.7188Z" fill="#26C9FC"/>
<path d="M22.0938 11.3125C22.0938 10.5873 22.3818 9.8918 22.8946 9.37901C23.4074 8.86621 24.1029 8.57812 24.8281 8.57812H30.2969C31.0221 8.57812 31.7176 8.86621 32.2304 9.37901C32.7432 9.8918 33.0312 10.5873 33.0312 11.3125H22.0938Z" fill="#D3D3D3"/>
<path d="M24.8281 8.57812C24.8281 7.85292 25.1162 7.15743 25.629 6.64463C26.1418 6.13184 26.8373 5.84375 27.5625 5.84375C28.2877 5.84375 28.9832 6.13184 29.496 6.64463C30.0088 7.15743 30.2969 7.85292 30.2969 8.57812H24.8281Z" fill="#F8312F"/>
</svg>
