<svg width="76" height="76" viewBox="0 0 76 76" fill="none" xmlns="http://www.w3.org/2000/svg">
<path d="M71.2686 30.9819H22.3342C21.1692 30.9819 20.2248 31.9263 20.2248 33.0913V44.8316H5.49057C4.32558 44.8316 3.3812 45.776 3.3812 46.941V71.1932C3.3812 72.3582 4.32558 73.3026 5.49057 73.3026H71.2688C72.4338 73.3026 73.3782 72.3582 73.3782 71.1932V33.0913C73.378 31.9263 72.4335 30.9819 71.2686 30.9819Z" fill="#D3D3D3"/>
<path d="M73.5572 28.1851H31.9503C31.6706 28.1851 31.4024 28.2962 31.2046 28.494C31.0068 28.6918 30.8957 28.96 30.8957 29.2397V31.7285C30.8957 32.0589 31.0269 32.3758 31.2606 32.6095C31.4942 32.8431 31.8111 32.9744 32.1415 32.9744H73.3662C73.6966 32.9744 74.0135 32.8431 74.2471 32.6095C74.4808 32.3758 74.612 32.0589 74.612 31.7285V29.2397C74.612 29.1012 74.5847 28.9641 74.5317 28.8361C74.4787 28.7081 74.401 28.5919 74.3031 28.4939C74.2051 28.396 74.0888 28.3183 73.9608 28.2653C73.8329 28.2123 73.6957 28.185 73.5572 28.1851ZM3.2019 41.5058H44.8089C45.0886 41.5058 45.3569 41.6169 45.5547 41.8147C45.7525 42.0125 45.8636 42.2807 45.8636 42.5604V45.0492C45.8636 45.3796 45.7323 45.6965 45.4987 45.9302C45.265 46.1638 44.9481 46.2951 44.6177 46.2951H3.39307C3.06265 46.2951 2.74576 46.1638 2.51212 45.9302C2.27848 45.6965 2.14722 45.3796 2.14722 45.0492V42.5604C2.14722 42.2807 2.25834 42.0125 2.45613 41.8147C2.65392 41.6169 2.92218 41.5058 3.2019 41.5058Z" fill="#95AAAD"/>
<path d="M46.8497 4.89502H9.09847C8.48881 4.89502 7.99457 5.48008 7.99457 6.20166V71.9961C7.99457 72.7177 8.48881 73.3028 9.09847 73.3028H46.8497C47.4594 73.3028 47.9536 72.7177 47.9536 71.9961V6.20166C47.9536 5.48008 47.4594 4.89502 46.8497 4.89502Z" fill="#E6E6E6"/>
<path d="M34.9117 17.1313H30.0572V12.2769C30.0572 11.9971 29.9461 11.7289 29.7483 11.5311C29.5505 11.3333 29.2822 11.2222 29.0025 11.2222H26.9459C26.6661 11.2222 26.3979 11.3333 26.2001 11.5311C26.0023 11.7289 25.8912 11.9971 25.8912 12.2769V17.1313H21.0367C20.757 17.1313 20.4887 17.2425 20.2909 17.4403C20.0931 17.6381 19.982 17.9063 19.982 18.186V20.2427C19.982 20.5224 20.0931 20.7907 20.2909 20.9885C20.4887 21.1862 20.757 21.2974 21.0367 21.2974H25.8912V26.1519C25.8912 26.4316 26.0023 26.6998 26.2001 26.8976C26.3979 27.0954 26.6661 27.2065 26.9459 27.2065H29.0025C29.2822 27.2065 29.5505 27.0954 29.7483 26.8976C29.9461 26.6998 30.0572 26.4316 30.0572 26.1519V21.2974H34.9117C35.1914 21.2974 35.4597 21.1862 35.6575 20.9885C35.8553 20.7907 35.9664 20.5224 35.9664 20.2427V18.186C35.9664 17.9063 35.8553 17.6381 35.6575 17.4403C35.4597 17.2425 35.1914 17.1313 34.9117 17.1313Z" fill="#FF473E"/>
<path d="M68.4531 54.46H52.9582C52.6785 54.46 52.4102 54.3489 52.2125 54.1511C52.0147 53.9533 51.9035 53.685 51.9035 53.4053V47.1901C51.9035 46.9104 52.0147 46.6422 52.2125 46.4444C52.4102 46.2466 52.6785 46.1354 52.9582 46.1354H68.4532C68.7329 46.1354 69.0012 46.2466 69.199 46.4444C69.3968 46.6422 69.5079 46.9104 69.5079 47.1901V53.4053C69.5079 53.5438 69.4806 53.681 69.4276 53.809C69.3746 53.9369 69.2969 54.0532 69.1989 54.1511C69.101 54.2491 68.9847 54.3268 68.8567 54.3798C68.7287 54.4328 68.5916 54.46 68.4531 54.46ZM69.6892 66.467V60.2519C69.6892 59.9721 69.5781 59.7039 69.3803 59.5061C69.1825 59.3083 68.9143 59.1972 68.6345 59.1972H52.7767C52.497 59.1972 52.2287 59.3083 52.031 59.5061C51.8332 59.7039 51.722 59.9721 51.722 60.2519V66.467C51.722 66.7468 51.8332 67.015 52.031 67.2128C52.2287 67.4106 52.497 67.5217 52.7767 67.5217H68.6345C68.9143 67.5217 69.1825 67.4106 69.3803 67.2128C69.5781 67.015 69.6892 66.7468 69.6892 66.467ZM69.6892 39.9285V37.8755C69.6892 37.5958 69.5781 37.3275 69.3803 37.1297C69.1825 36.9319 68.9143 36.8208 68.6345 36.8208H52.7767C52.497 36.8208 52.2287 36.9319 52.031 37.1297C51.8332 37.3275 51.722 37.5958 51.722 37.8755V39.9285C51.722 40.2082 51.8332 40.4765 52.031 40.6742C52.2287 40.872 52.497 40.9832 52.7767 40.9832H68.6345C68.9143 40.9832 69.1825 40.872 69.3803 40.6742C69.5781 40.4765 69.6892 40.2082 69.6892 39.9285Z" fill="#26C9FC"/>
<path d="M15.2719 62.1855H40.6763V73.3028H15.2719V62.1855Z" fill="#2B3B47"/>
<path d="M30.6229 54.4602H25.3919C25.1122 54.4602 24.844 54.3491 24.6462 54.1513C24.4484 53.9535 24.3373 53.6852 24.3373 53.4055V46.8338C24.3373 46.5541 24.4484 46.2858 24.6462 46.088C24.844 45.8902 25.1122 45.7791 25.3919 45.7791H30.6229C30.9026 45.7791 31.1709 45.8902 31.3687 46.088C31.5665 46.2858 31.6776 46.5541 31.6776 46.8338V53.4055C31.6776 53.6852 31.5665 53.9535 31.3687 54.1513C31.1709 54.3491 30.9026 54.4602 30.6229 54.4602ZM43.0977 53.4055V46.8338C43.0977 46.5541 42.9865 46.2858 42.7887 46.088C42.591 45.8902 42.3227 45.7791 42.043 45.7791H36.812C36.5323 45.7791 36.264 45.8902 36.0662 46.088C35.8684 46.2858 35.7573 46.5541 35.7573 46.8338V53.4055C35.7573 53.6852 35.8684 53.9535 36.0662 54.1513C36.264 54.3491 36.5323 54.4602 36.812 54.4602H42.043C42.3227 54.4602 42.591 54.3491 42.7887 54.1513C42.9865 53.9535 43.0977 53.6852 43.0977 53.4055ZM20.2577 53.4055V46.8338C20.2577 46.5541 20.1465 46.2858 19.9488 46.088C19.751 45.8902 19.4827 45.7791 19.203 45.7791H13.972C13.6923 45.7791 13.424 45.8902 13.2262 46.088C13.0284 46.2858 12.9173 46.5541 12.9173 46.8338V53.4055C12.9173 53.6852 13.0284 53.9535 13.2262 54.1513C13.424 54.3491 13.6923 54.4602 13.972 54.4602H19.203C19.4827 54.4602 19.751 54.3491 19.9488 54.1513C20.1465 53.9535 20.2577 53.6852 20.2577 53.4055ZM17.3611 39.9287V33.3569C17.3611 33.2184 17.3338 33.0813 17.2808 32.9533C17.2278 32.8254 17.1501 32.7091 17.0522 32.6112C16.9542 32.5132 16.838 32.4355 16.71 32.3825C16.582 32.3295 16.4449 32.3022 16.3064 32.3022H13.972C13.8335 32.3022 13.6964 32.3295 13.5684 32.3825C13.4404 32.4355 13.3242 32.5132 13.2262 32.6112C13.1283 32.7091 13.0506 32.8254 12.9976 32.9533C12.9446 33.0813 12.9173 33.2184 12.9173 33.3569V39.9287C12.9173 40.0672 12.9446 40.2043 12.9976 40.3323C13.0506 40.4602 13.1283 40.5765 13.2262 40.6744C13.3242 40.7724 13.4404 40.8501 13.5684 40.9031C13.6964 40.9561 13.8335 40.9833 13.972 40.9833H16.3064C16.5861 40.9833 16.8544 40.8722 17.0522 40.6744C17.25 40.4766 17.3611 40.2084 17.3611 39.9287ZM25.9399 39.9287V33.3569C25.9399 33.0772 25.8288 32.8089 25.631 32.6112C25.4332 32.4134 25.165 32.3022 24.8852 32.3022H22.5509C22.2712 32.3022 22.0029 32.4134 21.8051 32.6112C21.6073 32.8089 21.4962 33.0772 21.4962 33.3569V39.9287C21.4962 40.2084 21.6073 40.4766 21.8051 40.6744C22.0029 40.8722 22.2712 40.9833 22.5509 40.9833H24.8852C25.165 40.9833 25.4332 40.8722 25.631 40.6744C25.8288 40.4766 25.9399 40.2084 25.9399 39.9287ZM34.5188 39.9287V33.3569C34.5188 33.0772 34.4077 32.8089 34.2099 32.6112C34.0121 32.4134 33.7438 32.3022 33.4641 32.3022H31.1297C30.85 32.3022 30.5817 32.4134 30.384 32.6112C30.1862 32.8089 30.075 33.0772 30.075 33.3569V39.9287C30.075 40.2084 30.1862 40.4766 30.384 40.6744C30.5817 40.8722 30.85 40.9833 31.1297 40.9833H33.4641C33.7438 40.9833 34.0121 40.8722 34.2099 40.6744C34.4077 40.4766 34.5188 40.2084 34.5188 39.9287ZM43.0977 39.9287V33.3569C43.0977 33.0772 42.9865 32.8089 42.7887 32.6112C42.591 32.4134 42.3227 32.3022 42.043 32.3022H39.7086C39.4289 32.3022 39.1606 32.4134 38.9628 32.6112C38.765 32.8089 38.6539 33.0772 38.6539 33.3569V39.9287C38.6539 40.2084 38.765 40.4766 38.9628 40.6744C39.1606 40.8722 39.4289 40.9833 39.7086 40.9833H42.043C42.3227 40.9833 42.591 40.8722 42.7887 40.6744C42.9865 40.4766 43.0977 40.2084 43.0977 39.9287Z" fill="#26C9FC"/>
<path d="M40.6763 63.3595H15.2719V62.1554C15.2719 61.3582 15.9182 60.7119 16.7154 60.7119H39.2327C40.0298 60.7119 40.6761 61.3582 40.6761 62.1554L40.6763 63.3595Z" fill="#67747C"/>
<path d="M48.811 3.43896H7.20401C6.92429 3.43896 6.65603 3.55008 6.45823 3.74788C6.26044 3.94567 6.14932 4.21393 6.14932 4.49365V6.98242C6.14932 7.31284 6.28058 7.62973 6.51422 7.86337C6.74787 8.09701 7.06475 8.22827 7.39517 8.22827H48.6198C48.9502 8.22827 49.2671 8.09701 49.5008 7.86337C49.7344 7.62973 49.8657 7.31284 49.8657 6.98242V4.49365C49.8657 4.21393 49.7546 3.94567 49.5568 3.74788C49.359 3.55008 49.0907 3.43896 48.811 3.43896Z" fill="#95AAAD"/>
</svg>
